<svg width="815" height="603" viewBox="0 0 815 603" fill="none" xmlns="http://www.w3.org/2000/svg">
<path d="M407.5 99.42C631.728 99.42 813.5 77.4999 813.5 50.46C813.5 23.4201 631.728 1.5 407.5 1.5C183.272 1.5 1.5 23.4201 1.5 50.46C1.5 77.4999 183.272 99.42 407.5 99.42Z" stroke="#FFD166" stroke-width="3"/>
<path d="M1.5 50.46L320.5 478.86" stroke="#FFD166" stroke-width="3" stroke-linecap="round"/>
<path d="M813.5 50.46L494.5 478.86" stroke="#FFD166" stroke-width="3" stroke-linecap="round"/>
<path d="M320.5 478.86L378.5 601.26" stroke="#FFD166" stroke-width="3" stroke-linecap="round"/>
<path d="M494.5 478.86L436.5 601.26" stroke="#FFD166" stroke-width="3" stroke-linecap="round"/>
<path d="M378.5 601.26H436.5" stroke="#FFD166" stroke-width="3" stroke-linecap="round"/>
<path d="M120.1 127.74C126.507 127.74 131.7 122.26 131.7 115.5C131.7 108.74 126.507 103.26 120.1 103.26C113.693 103.26 108.5 108.74 108.5 115.5C108.5 122.26 113.693 127.74 120.1 127.74Z" fill="#FFD166"/>
<path d="M213.1 138.74C219.507 138.74 224.7 133.26 224.7 126.5C224.7 119.74 219.507 114.26 213.1 114.26C206.693 114.26 201.5 119.74 201.5 126.5C201.5 133.26 206.693 138.74 213.1 138.74Z" fill="#FFD166"/>
<path d="M305.1 146.74C311.507 146.74 316.7 141.26 316.7 134.5C316.7 127.74 311.507 122.26 305.1 122.26C298.693 122.26 293.5 127.74 293.5 134.5C293.5 141.26 298.693 146.74 305.1 146.74Z" fill="#FFD166"/>
<path d="M405.1 152.74C411.507 152.74 416.7 147.26 416.7 140.5C416.7 133.74 411.507 128.26 405.1 128.26C398.693 128.26 393.5 133.74 393.5 140.5C393.5 147.26 398.693 152.74 405.1 152.74Z" fill="#FFD166"/>
<g filter="url(#filter0_d_28_92)">
<path d="M707.1 127.74C700.693 127.74 695.5 122.26 695.5 115.5C695.5 108.74 700.693 103.26 707.1 103.26C713.506 103.26 718.7 108.74 718.7 115.5C718.7 122.26 713.506 127.74 707.1 127.74Z" fill="#FFD166"/>
</g>
<g filter="url(#filter1_d_28_92)">
<path d="M598.1 138.74C591.693 138.74 586.5 133.26 586.5 126.5C586.5 119.74 591.693 114.26 598.1 114.26C604.506 114.26 609.7 119.74 609.7 126.5C609.7 133.26 604.506 138.74 598.1 138.74Z" fill="#FFD166"/>
</g>
<g filter="url(#filter2_d_28_92)">
<path d="M506.1 146.74C499.694 146.74 494.5 141.26 494.5 134.5C494.5 127.74 499.694 122.26 506.1 122.26C512.507 122.26 517.7 127.74 517.7 134.5C517.7 141.26 512.507 146.74 506.1 146.74Z" fill="#FFD166"/>
</g>
<path d="M172.1 206.74C178.507 206.74 183.7 201.26 183.7 194.5C183.7 187.74 178.507 182.26 172.1 182.26C165.693 182.26 160.5 187.74 160.5 194.5C160.5 201.26 165.693 206.74 172.1 206.74Z" fill="#FFD166"/>
<path d="M265.1 217.74C271.507 217.74 276.7 212.26 276.7 205.5C276.7 198.74 271.507 193.26 265.1 193.26C258.693 193.26 253.5 198.74 253.5 205.5C253.5 212.26 258.693 217.74 265.1 217.74Z" fill="#FFD166"/>
<path d="M357.1 225.74C363.507 225.74 368.7 220.26 368.7 213.5C368.7 206.74 363.507 201.26 357.1 201.26C350.693 201.26 345.5 206.74 345.5 213.5C345.5 220.26 350.693 225.74 357.1 225.74Z" fill="#FFD166"/>
<path d="M457.1 225.74C463.507 225.74 468.7 220.26 468.7 213.5C468.7 206.74 463.507 201.26 457.1 201.26C450.693 201.26 445.5 206.74 445.5 213.5C445.5 220.26 450.693 225.74 457.1 225.74Z" fill="#FFD166"/>
<g filter="url(#filter3_d_28_92)">
<path d="M651.1 204.74C644.693 204.74 639.5 199.26 639.5 192.5C639.5 185.74 644.693 180.26 651.1 180.26C657.506 180.26 662.7 185.74 662.7 192.5C662.7 199.26 657.506 204.74 651.1 204.74Z" fill="#FFD166"/>
</g>
<g filter="url(#filter4_d_28_92)">
<path d="M558.1 217.74C551.694 217.74 546.5 212.26 546.5 205.5C546.5 198.74 551.694 193.26 558.1 193.26C564.507 193.26 569.7 198.74 569.7 205.5C569.7 212.26 564.507 217.74 558.1 217.74Z" fill="#FFD166"/>
</g>
<path d="M221.1 291.74C227.507 291.74 232.7 286.26 232.7 279.5C232.7 272.74 227.507 267.26 221.1 267.26C214.693 267.26 209.5 272.74 209.5 279.5C209.5 286.26 214.693 291.74 221.1 291.74Z" fill="#FFD166"/>
<path d="M317.1 303.74C323.507 303.74 328.7 298.26 328.7 291.5C328.7 284.74 323.507 279.26 317.1 279.26C310.693 279.26 305.5 284.74 305.5 291.5C305.5 298.26 310.693 303.74 317.1 303.74Z" fill="#FFD166"/>
<path d="M407.1 308.74C413.507 308.74 418.7 303.26 418.7 296.5C418.7 289.74 413.507 284.26 407.1 284.26C400.693 284.26 395.5 289.74 395.5 296.5C395.5 303.26 400.693 308.74 407.1 308.74Z" fill="#FFD166"/>
<g filter="url(#filter5_d_28_92)">
<path d="M588.1 291.74C581.693 291.74 576.5 286.26 576.5 279.5C576.5 272.74 581.693 267.26 588.1 267.26C594.506 267.26 599.7 272.74 599.7 279.5C599.7 286.26 594.506 291.74 588.1 291.74Z" fill="#FFD166"/>
</g>
<g filter="url(#filter6_d_28_92)">
<path d="M502.1 302.74C495.694 302.74 490.5 297.26 490.5 290.5C490.5 283.74 495.694 278.26 502.1 278.26C508.507 278.26 513.7 283.74 513.7 290.5C513.7 297.26 508.507 302.74 502.1 302.74Z" fill="#FFD166"/>
</g>
<path d="M282.1 380.74C288.507 380.74 293.7 375.26 293.7 368.5C293.7 361.74 288.507 356.26 282.1 356.26C275.693 356.26 270.5 361.74 270.5 368.5C270.5 375.26 275.693 380.74 282.1 380.74Z" fill="#FFD166"/>
<path d="M360.1 392.74C366.507 392.74 371.7 387.26 371.7 380.5C371.7 373.74 366.507 368.26 360.1 368.26C353.693 368.26 348.5 373.74 348.5 380.5C348.5 387.26 353.693 392.74 360.1 392.74Z" fill="#FFD166"/>
<path d="M438.1 393.74C444.507 393.74 449.7 388.26 449.7 381.5C449.7 374.74 444.507 369.26 438.1 369.26C431.693 369.26 426.5 374.74 426.5 381.5C426.5 388.26 431.693 393.74 438.1 393.74Z" fill="#FFD166"/>
<path d="M341.1 459.74C347.507 459.74 352.7 454.26 352.7 447.5C352.7 440.74 347.507 435.26 341.1 435.26C334.693 435.26 329.5 440.74 329.5 447.5C329.5 454.26 334.693 459.74 341.1 459.74Z" fill="#FFD166"/>
<path d="M405.1 459.74C411.507 459.74 416.7 454.26 416.7 447.5C416.7 440.74 411.507 435.26 405.1 435.26C398.693 435.26 393.5 440.74 393.5 447.5C393.5 454.26 398.693 459.74 405.1 459.74Z" fill="#FFD166"/>
<path d="M469.1 459.74C475.507 459.74 480.7 454.26 480.7 447.5C480.7 440.74 475.507 435.26 469.1 435.26C462.693 435.26 457.5 440.74 457.5 447.5C457.5 454.26 462.693 459.74 469.1 459.74Z" fill="#FFD166"/>
<path d="M370.1 526.74C376.507 526.74 381.7 521.26 381.7 514.5C381.7 507.74 376.507 502.26 370.1 502.26C363.693 502.26 358.5 507.74 358.5 514.5C358.5 521.26 363.693 526.74 370.1 526.74Z" fill="#FFD166"/>
<path d="M434.1 526.74C440.507 526.74 445.7 521.26 445.7 514.5C445.7 507.74 440.507 502.26 434.1 502.26C427.693 502.26 422.5 507.74 422.5 514.5C422.5 521.26 427.693 526.74 434.1 526.74Z" fill="#FFD166"/>
<path d="M405 580.26C416.874 580.26 426.5 571.53 426.5 560.76C426.5 549.99 416.874 541.26 405 541.26C393.126 541.26 383.5 549.99 383.5 560.76C383.5 571.53 393.126 580.26 405 580.26Z" fill="#FFD166"/>
<g filter="url(#filter7_d_28_92)">
<path d="M515.1 382.74C508.694 382.74 503.5 377.26 503.5 370.5C503.5 363.74 508.694 358.26 515.1 358.26C521.507 358.26 526.7 363.74 526.7 370.5C526.7 377.26 521.507 382.74 515.1 382.74Z" fill="#FFD166"/>
</g>
<defs>
<filter id="filter0_d_28_92" x="691.5" y="103.26" width="31.2002" height="32.48" filterUnits="userSpaceOnUse" color-interpolation-filters="sRGB">
<feFlood flood-opacity="0" result="BackgroundImageFix"/>
<feColorMatrix in="SourceAlpha" type="matrix" values="0 0 0 0 0 0 0 0 0 0 0 0 0 0 0 0 0 0 127 0" result="hardAlpha"/>
<feOffset dy="4"/>
<feGaussianBlur stdDeviation="2"/>
<feComposite in2="hardAlpha" operator="out"/>
<feColorMatrix type="matrix" values="0 0 0 0 0 0 0 0 0 0 0 0 0 0 0 0 0 0 0.25 0"/>
<feBlend mode="normal" in2="BackgroundImageFix" result="effect1_dropShadow_28_92"/>
<feBlend mode="normal" in="SourceGraphic" in2="effect1_dropShadow_28_92" result="shape"/>
</filter>
<filter id="filter1_d_28_92" x="582.5" y="114.26" width="31.2002" height="32.48" filterUnits="userSpaceOnUse" color-interpolation-filters="sRGB">
<feFlood flood-opacity="0" result="BackgroundImageFix"/>
<feColorMatrix in="SourceAlpha" type="matrix" values="0 0 0 0 0 0 0 0 0 0 0 0 0 0 0 0 0 0 127 0" result="hardAlpha"/>
<feOffset dy="4"/>
<feGaussianBlur stdDeviation="2"/>
<feComposite in2="hardAlpha" operator="out"/>
<feColorMatrix type="matrix" values="0 0 0 0 0 0 0 0 0 0 0 0 0 0 0 0 0 0 0.25 0"/>
<feBlend mode="normal" in2="BackgroundImageFix" result="effect1_dropShadow_28_92"/>
<feBlend mode="normal" in="SourceGraphic" in2="effect1_dropShadow_28_92" result="shape"/>
</filter>
<filter id="filter2_d_28_92" x="490.5" y="122.26" width="31.2002" height="32.48" filterUnits="userSpaceOnUse" color-interpolation-filters="sRGB">
<feFlood flood-opacity="0" result="BackgroundImageFix"/>
<feColorMatrix in="SourceAlpha" type="matrix" values="0 0 0 0 0 0 0 0 0 0 0 0 0 0 0 0 0 0 127 0" result="hardAlpha"/>
<feOffset dy="4"/>
<feGaussianBlur stdDeviation="2"/>
<feComposite in2="hardAlpha" operator="out"/>
<feColorMatrix type="matrix" values="0 0 0 0 0 0 0 0 0 0 0 0 0 0 0 0 0 0 0.25 0"/>
<feBlend mode="normal" in2="BackgroundImageFix" result="effect1_dropShadow_28_92"/>
<feBlend mode="normal" in="SourceGraphic" in2="effect1_dropShadow_28_92" result="shape"/>
</filter>
<filter id="filter3_d_28_92" x="635.5" y="180.26" width="31.2002" height="32.48" filterUnits="userSpaceOnUse" color-interpolation-filters="sRGB">
<feFlood flood-opacity="0" result="BackgroundImageFix"/>
<feColorMatrix in="SourceAlpha" type="matrix" values="0 0 0 0 0 0 0 0 0 0 0 0 0 0 0 0 0 0 127 0" result="hardAlpha"/>
<feOffset dy="4"/>
<feGaussianBlur stdDeviation="2"/>
<feComposite in2="hardAlpha" operator="out"/>
<feColorMatrix type="matrix" values="0 0 0 0 0 0 0 0 0 0 0 0 0 0 0 0 0 0 0.25 0"/>
<feBlend mode="normal" in2="BackgroundImageFix" result="effect1_dropShadow_28_92"/>
<feBlend mode="normal" in="SourceGraphic" in2="effect1_dropShadow_28_92" result="shape"/>
</filter>
<filter id="filter4_d_28_92" x="542.5" y="193.26" width="31.2002" height="32.48" filterUnits="userSpaceOnUse" color-interpolation-filters="sRGB">
<feFlood flood-opacity="0" result="BackgroundImageFix"/>
<feColorMatrix in="SourceAlpha" type="matrix" values="0 0 0 0 0 0 0 0 0 0 0 0 0 0 0 0 0 0 127 0" result="hardAlpha"/>
<feOffset dy="4"/>
<feGaussianBlur stdDeviation="2"/>
<feComposite in2="hardAlpha" operator="out"/>
<feColorMatrix type="matrix" values="0 0 0 0 0 0 0 0 0 0 0 0 0 0 0 0 0 0 0.25 0"/>
<feBlend mode="normal" in2="BackgroundImageFix" result="effect1_dropShadow_28_92"/>
<feBlend mode="normal" in="SourceGraphic" in2="effect1_dropShadow_28_92" result="shape"/>
</filter>
<filter id="filter5_d_28_92" x="572.5" y="267.26" width="31.2002" height="32.48" filterUnits="userSpaceOnUse" color-interpolation-filters="sRGB">
<feFlood flood-opacity="0" result="BackgroundImageFix"/>
<feColorMatrix in="SourceAlpha" type="matrix" values="0 0 0 0 0 0 0 0 0 0 0 0 0 0 0 0 0 0 127 0" result="hardAlpha"/>
<feOffset dy="4"/>
<feGaussianBlur stdDeviation="2"/>
<feComposite in2="hardAlpha" operator="out"/>
<feColorMatrix type="matrix" values="0 0 0 0 0 0 0 0 0 0 0 0 0 0 0 0 0 0 0.25 0"/>
<feBlend mode="normal" in2="BackgroundImageFix" result="effect1_dropShadow_28_92"/>
<feBlend mode="normal" in="SourceGraphic" in2="effect1_dropShadow_28_92" result="shape"/>
</filter>
<filter id="filter6_d_28_92" x="486.5" y="278.26" width="31.2002" height="32.48" filterUnits="userSpaceOnUse" color-interpolation-filters="sRGB">
<feFlood flood-opacity="0" result="BackgroundImageFix"/>
<feColorMatrix in="SourceAlpha" type="matrix" values="0 0 0 0 0 0 0 0 0 0 0 0 0 0 0 0 0 0 127 0" result="hardAlpha"/>
<feOffset dy="4"/>
<feGaussianBlur stdDeviation="2"/>
<feComposite in2="hardAlpha" operator="out"/>
<feColorMatrix type="matrix" values="0 0 0 0 0 0 0 0 0 0 0 0 0 0 0 0 0 0 0.25 0"/>
<feBlend mode="normal" in2="BackgroundImageFix" result="effect1_dropShadow_28_92"/>
<feBlend mode="normal" in="SourceGraphic" in2="effect1_dropShadow_28_92" result="shape"/>
</filter>
<filter id="filter7_d_28_92" x="499.5" y="358.26" width="31.2002" height="32.48" filterUnits="userSpaceOnUse" color-interpolation-filters="sRGB">
<feFlood flood-opacity="0" result="BackgroundImageFix"/>
<feColorMatrix in="SourceAlpha" type="matrix" values="0 0 0 0 0 0 0 0 0 0 0 0 0 0 0 0 0 0 127 0" result="hardAlpha"/>
<feOffset dy="4"/>
<feGaussianBlur stdDeviation="2"/>
<feComposite in2="hardAlpha" operator="out"/>
<feColorMatrix type="matrix" values="0 0 0 0 0 0 0 0 0 0 0 0 0 0 0 0 0 0 0.25 0"/>
<feBlend mode="normal" in2="BackgroundImageFix" result="effect1_dropShadow_28_92"/>
<feBlend mode="normal" in="SourceGraphic" in2="effect1_dropShadow_28_92" result="shape"/>
</filter>
</defs>
</svg>
